<svg class="svg-icon" style="width: 1em; height: 1em;vertical-align: middle;fill: white;overflow: hidden;" viewBox="0 0 1024 1024" version="1.1" xmlns="http://www.w3.org/2000/svg"><path d="M938.784176 590.834486l0.095167 0.026606L834.504158 884.508016l-0.345877-0.076748c-15.999392 36.433794-52.287877 61.941747-94.629217 61.941747L449.945689 946.373015c-22.846334 0-41.3692-18.520819-41.3692-41.3692s18.522865-41.3692 41.3692-41.3692l188.246385 0c-0.010233-0.040932-0.00614-0.089028-0.014326-0.12996l100.786451 0.016373c0.198521 0.00614 0.364297 0.113587 0.564865 0.113587 8.927323 0 16.367783-5.723352 19.263739-13.649881l0.316202-0.225127 99.680257-280.532231-0.157589-0.231267c3.119037-8.083096 5.003967-16.785292 5.003967-25.969465 0-39.7227-32.015158-71.903633-71.638597-72.319096l-0.629333-0.927115 0 0.850367L676.292833 470.6308c-49.28652 0-71.727625-37.250392-56.216349-70.862931 15.513322-33.612539 16.030092-172.659385 16.030092-177.348174l0-20.686135c0-22.846334-18.522865-41.3692-41.3692-41.3692-22.848381 0-41.3692 18.522865-41.3692 41.3692l0 20.686135c0 134.398989-98.714256 245.445108-227.53111 265.389346l0 417.194774c0 22.848381-18.520819 41.3692-41.367153 41.3692L118.997208 946.373015c-22.848381 0-41.3692-18.520819-41.3692-41.3692L77.628008 449.948759c0-22.850427 18.520819-41.3692 41.3692-41.3692l165.475775 0c102.811574 0 186.159864-83.34829 186.159864-186.159864l0-20.686135c0-68.542072 55.564503-124.106576 124.106576-124.106576s124.106576 55.564503 124.106576 124.106576l0 20.686135c0 21.394263-4.703115 145.521305-9.423627 165.473729l81.817424 0c85.679381 0 155.13322 69.453838 155.13322 155.13322C946.371992 559.720861 943.664324 575.765279 938.784176 590.834486zM243.103784 491.315912l-82.737376 0 0 372.319727 82.737376 0L243.103784 491.315912z"  /></svg>